<?xml version="1.0" standalone="no"?>
<!DOCTYPE svg PUBLIC "-//W3C//DTD SVG 1.1//EN" "http://www.w3.org/Graphics/SVG/1.1/DTD/svg11.dtd">
<svg xmlns="http://www.w3.org/2000/svg">
<metadata>Copyright (C) 2018 by original authors @ fontello.com</metadata>
<defs>
<font id="fontello" horiz-adv-x="1000" >
<font-face font-family="fontello" font-weight="400" font-stretch="normal" units-per-em="1000" ascent="850" descent="-150" />
<missing-glyph horiz-adv-x="1000" />
<glyph glyph-name="angle-left" unicode="&#xe800;" d="M349 283l478-478-48-48-525 526 526 526 47-48-478-478z" horiz-adv-x="1000" />

<glyph glyph-name="angle-right" unicode="&#xe801;" d="M775 281l-515 517 51 52 567-569-567-569-51 52 515 517z" horiz-adv-x="1000" />

<glyph glyph-name="angle-up" unicode="&#xe802;" d="M1139 22l-51-51-518 518-517-518-52 51 569 569 569-569z" horiz-adv-x="1001" />

<glyph glyph-name="app-manager" unicode="&#xe803;" d="M910 583l-368-134c-3 1-6 1-9 1-2 0-5 0-8-1l-368 134c-17 6-37-3-43-20-6-17 3-36 20-43l366-133v-370c0-18 15-34 33-34 18 0 34 15 34 34v370l365 133c17 7 27 26 21 43-6 17-26 26-43 20z m94 90l-408 154c-35 13-91 13-125 0l-409-154c-34-12-62-53-62-89v-467c0-37 28-77 62-90l409-154c35-13 90-13 125 0l409 154c34 13 62 53 62 90v467c0 36-28 77-63 89z m-4-550c0-18-13-38-31-45l-404-150c-18-6-45-6-63 0l-404 150c-17 7-31 27-31 45v454c0 18 13 38 31 45l404 150c17 6 45 6 63 0l404-150c17-7 31-27 31-45v-454z" horiz-adv-x="1067" />

<glyph glyph-name="asc" unicode="&#xe804;" d="M929 627l0-741c0-20-17-36-36-36l-71 0c-21 0-36 16-36 36l0 928c0 20 16 36 36 36l71 0c12 0 23-6 29-15l199-199c14-13 14-36-1-50l-50-50c-14-14-36-15-50-1l-91 92z m-929-741c0-20 16-36 36-36l571 0c20 0 36 15 36 36l0 71c0 20-16 36-36 36l-571 0c-20 0-36-15-36-36l0-71z m0 429c0-20 17-36 36-36l500 0c19 0 35 15 35 36l0 70c0 20-16 36-35 36l-500 0c-20 0-36-15-36-36l0-70z m0 428c0-20 15-36 36-36l286 0c19 0 35 15 35 36l0 71c0 20-15 36-35 36l-286 0c-20 0-36-15-36-36l0-71z" horiz-adv-x="1143" />

<glyph glyph-name="attribute" unicode="&#xe805;" d="M883 38l54 0c35 0 63 27 63 62l0 688c0 34-28 62-63 62l-874 0c-35 0-63-28-63-62l0-688c0-34 28-62 63-62l585 0 208-151c28-21 47-9 43 25l-16 126z m-820 718c0 18 13 32 31 32l812 0c18 0 32-15 32-32l0-625c0-17-14-31-32-31l-812 0c-18 0-31 14-31 31l0 625z m156-125c0 18 14 32 32 32l498 0c18 0 32-15 32-32 0-17-14-31-32-31l-498 0c-18 0-32 15-32 31z m0-187c0 17 14 31 32 31l498 0c18 0 32-14 32-31 0-17-14-31-32-31l-498 0c-18 0-32 14-32 31z m0-188c0 18 14 32 32 32l498 0c18 0 32-15 32-32 0-17-14-31-32-31l-498 0c-18 0-32 15-32 31z" horiz-adv-x="1000" />

<glyph glyph-name="bars" unicode="&#xe806;" d="M0 808c0 23 18 42 42 42l83 0c23 0 42-18 42-42l0-83c0-23-18-42-42-42l-83 0c-23 0-42 18-42 42l0 83z m250 0c0 23 19 42 41 42l1001 0c23 0 41-18 41-42l0-83c0-23-18-42-41-42l-1001 0c-23 0-41 18-41 42l0 83z m-250-833c0 23 18 42 42 42l83 0c23 0 42-18 42-42l0-83c0-23-18-42-42-42l-83 0c-23 0-42 18-42 42l0 83z m250 0c0 23 19 42 41 42l1001 0c23 0 41-18 41-42l0-83c0-23-18-42-41-42l-1001 0c-23 0-41 18-41 42l0 83z m-250 416c0 24 18 42 42 42l83 0c23 0 42-17 42-42l0-82c0-23-18-42-42-42l-83 0c-23 0-42 18-42 42l0 82z m250 0c0 24 19 42 41 42l1001 0c23 0 41-17 41-42l0-82c0-23-18-42-41-42l-1001 0c-23 0-41 18-41 42l0 82z" horiz-adv-x="1333" />

<glyph glyph-name="bars-light" unicode="&#xe807;" d="M0 814l214 0 0-71-214 0 0 71z m429 0l714 0 0-71-714 0 0 71z m-429-857l214 0 0-71-214 0 0 71z m429 0l714 0 0-71-714 0 0 71z m-429 429l214 0 0-72-214 0 0 72z m429 0l714 0 0-72-714 0 0 72z" horiz-adv-x="1143" />

<glyph glyph-name="batch" unicode="&#xe808;" d="M31 850h938c17 0 31-14 31-31l0 0c0-17-14-31-31-31h-938c-17 0-31 14-31 31l0 0c0 17 14 31 31 31z m0-437h813c17 0 31-14 31-32l0 0c0-17-14-31-31-31h-813c-17 0-31 14-31 31l0 0c0 18 14 32 31 32z m750-313h-125l0 0c-17 0-31-14-31-31s14-31 31-31h125v-126c0-17 14-31 32-31s31 14 31 31v126h125c17 0 31 14 31 31s-14 31-31 31h-125v125l0 0c0 17-14 31-31 31l0 0 0 0c-18 0-32-14-32-31v-125z m-750-125h500c18 0 32-14 32-31l0 0c0-18-14-32-32-32h-500c-17 0-31 14-31 32l0 0c0 17 14 31 31 31z" horiz-adv-x="1000" />

<glyph glyph-name="be-large" unicode="&#xe809;" d="M603 372c-13-12-33-12-45 1l-43 45c-12 12-12 32 1 44l272 263-132 0c-17 0-31 14-31 31l0 63c0 17 14 31 31 31l282 0c34 0 62-28 62-62l0-282c0-17-14-31-31-31l-63 0c-17 0-31 14-31 31l0 129-272-263z m-206-31c13 12 33 12 45 0l43-45c12-13 12-33-1-45l-272-263 132 0c17 0 31-14 31-31l0-63c0-17-14-31-31-31l-282 0c-34 0-62 28-62 62l0 282c0 17 14 31 31 31l63 0c17 0 31-14 31-31l0-129 272 263z" horiz-adv-x="1000" />

<glyph glyph-name="be-small" unicode="&#xe80a;" d="M103-128c-13-12-33-12-45 1l-43 45c-12 12-12 32 1 44l272 263-132 0c-17 0-31 14-31 31l0 63c0 17 14 31 31 31l282 0c34 0 62-28 62-62l0-282c0-17-14-31-31-31l-63 0c-17 0-31 14-31 31l0 129-272-263z m794 969c13 12 33 12 45 0l43-45c12-13 12-33-1-45l-272-263 132 0c17 0 31-14 31-31l0-63c0-17-14-31-31-31l-282 0c-34 0-62 28-62 62l0 282c0 17 14 31 31 31l63 0c17 0 31-14 31-31l0-129 272 263z" horiz-adv-x="1000" />

<glyph glyph-name="board-add" unicode="&#xe80b;" d="M969 413c-155 0-281-126-281-282 0-94 46-176 117-227-4 3-9 5-13 8h-573c-17 0-31 14-31 32v94c35 0 62 28 62 62v500c0 34-28 62-62 63v93c0 18 14 32 31 32h687c17 0 32-14 32-32v-345c10 1 20 2 31 2s21-1 31-2v376c0 35-28 63-63 63h-749c-35 0-63-28-63-63v-124h-62c-35 0-63-28-63-63v-500c0-34 28-62 63-62h62v-125c0-35 28-63 63-63h749c4 0 7 0 10 1-8 0-16 2-25 4 16-3 31-5 47-5 155 0 281 126 281 281s-126 282-281 282z m-813-313h-62c-17 0-31 14-31 31v438c0 17 13 31 31 31h62c17 0 32-14 32-31v-438c0-17-14-31-32-31z m969 0h-125v-125h-62v125h-125v63h125v125h62v-125h125v-63z m-375 296c19 16 40 30 63 42v37h-63v-79z m-375-296h63v250h-63c0-49 0-250 0-250z m188 0h62v500h-62c0-72 0-500 0-500z" horiz-adv-x="1250" />

<glyph glyph-name="board-edit" unicode="&#xe80c;" d="M750 396c19 16 40 30 63 42v37h-63v-79z m460-120l-251-250c-24-24-63-25-88 0l-115 115 48 48 88-88c13-13 33-12 45 0l230 230c-51 50-121 82-198 82-156 0-281-126-281-282 0-93 46-176 116-227-4 3-8 5-12 8h-573c-17 0-31 14-31 32v94c35 0 62 28 62 62v500c0 34-28 62-62 63v93c0 18 14 32 31 32h687c17 0 32-14 32-32v-345c10 1 20 2 31 2s21-1 31-2v376c0 35-28 63-63 63h-749c-35 0-63-28-63-63v-124h-62c-35 0-63-28-63-63v-500c0-34 28-62 63-62h62v-125c0-35 28-63 63-63h749c4 0 7 0 10 1-8 0-16 2-25 4 16-3 31-5 47-5 155 0 281 126 281 281 0 53-15 103-40 145z m-1054-176h-62c-17 0-31 14-31 31v438c0 17 13 31 31 31h62c17 0 32-14 32-31v-438c0-17-14-31-32-31z m219 250h63v-250h-63c0 0 0 208 0 250z m188 250h62v-500h-62c0 0 0 470 0 500z" horiz-adv-x="1250" />

<glyph glyph-name="calendar" unicode="&#xe80d;" d="M937 788h-62c0 34-28 62-63 62h-124c-35 0-63-28-63-62h-250c0 34-28 62-63 62h-124c-35 0-63-28-63-62h-62c-35 0-63-29-63-63v-812c0-35 28-63 63-63h874c35 0 63 28 63 63v812c0 34-28 63-63 63z m1-845c0-17-14-31-32-31h-812c-18 0-31 15-31 31v595h875v-595z m0 657h-875v94c0 17 13 31 31 31h94v32c0 17 13 31 31 31h62c17 0 32-14 32-31v-32h375v32c0 17 13 31 31 31h62c17 0 32-14 32-31v-32h93c18 0 32-14 32-31v-94z m-752-250v-125h127v125c0 0-63 0-127 0z m252 0v-125h125v125c0 0-103 0-125 0z m248 0v-125h127v125c0 0-101 0-127 0z" horiz-adv-x="1000" />

<glyph glyph-name="channel" unicode="&#xe80e;" d="M306 399l356-250c34 46 89 76 151 76 103 0 187-84 187-187 0-104-84-188-187-188-104 0-188 84-188 188 0 19 3 37 8 55l-357 250c-29-34-72-55-120-55-86 0-156 70-156 156 0 86 70 156 156 156 52 0 98-25 126-64l283 164c-2 8-2 16-2 25 0 69 56 125 125 125 69 0 125-56 125-125 0-69-56-125-125-125-38 0-72 17-95 44l-285-165c3-11 5-23 5-35 0-16-3-31-7-45z m507-236c-69 0-125-56-125-125 0-70 56-126 125-126 69 0 125 56 125 126 0 69-56 125-125 125z m-657 187c52 0 94 42 94 94 0 52-42 94-94 94-51 0-93-42-93-94 0-52 42-94 93-94z m532 313c34 0 62 28 62 62 0 35-28 63-62 63-35 0-63-28-63-63 0-34 28-62 63-62z" horiz-adv-x="1000" />

<glyph glyph-name="chart" unicode="&#xe80f;" d="M375 850h-312c-36 0-63-28-63-63v-312c0-35 28-62 63-62h312c35 0 63 28 63 62v312c0 36-29 63-63 63z m0-344c0-17-13-31-31-31h-250c-18 0-31 13-31 31v250c0 18 13 32 31 32h250c17 0 31-14 31-32v-250z m0-218h-312c-36 0-63-29-63-63v-312c0-36 28-63 63-63h312c35 0 63 28 63 63v312c0 35-29 63-63 63z m0-344c0-18-13-32-31-32h-250c-18 0-31 14-31 32v250c0 17 13 31 31 31h250c17 0 31-13 31-31v-250z m562 906h-312c-35 0-62-28-62-63v-312c0-35 28-62 62-62h312c36 0 63 28 63 62v312c0 36-28 63-63 63z m1-344c0-17-14-31-32-31h-250c-17 0-31 13-31 31v250c0 18 13 32 31 32h250c18 0 32-14 32-32v-250z m-1-218h-312c-35 0-62-29-62-63v-312c0-36 28-63 62-63h312c36 0 63 28 63 63v312c0 35-28 63-63 63z m1-344c0-18-14-32-32-32h-250c-17 0-31 14-31 32v250c0 17 13 31 31 31h250c18 0 32-13 32-31v-250z" horiz-adv-x="1000" />

<glyph glyph-name="chart-bar" unicode="&#xe810;" d="M263 404l183 0 0-429-183 0 0 429z m306 306l184 0 0-735-184 0 0 735z m306-184l184 0 0-551-184 0 0 551z m-735 245l-61 0 0-919 0-61 61 0 919 0 0 61-919 0z" horiz-adv-x="1000" />

<glyph glyph-name="chart-line" unicode="&#xe811;" d="M969-83h-905v832c0 17-14 31-31 31-17 0-31-14-31-31v-863c0-17 14-31 31-31h936c17 0 31 14 31 31 0 17-14 31-31 31z m-789 257c8 0 16 3 22 9l252 252 204-238c6-7 15-11 23-11 9 0 18 3 24 10l236 264c12 13 11 33-2 44-13 12-32 10-44-2l-213-238-202 237c-6 7-14 11-23 11-8 0-17-3-23-9l-276-276c-12-12-12-32 0-44 6-6 14-9 22-9z" horiz-adv-x="1000" />

<glyph glyph-name="chart-pie" unicode="&#xe812;" d="M533 706c-255 0-461-206-461-461 0-255 206-461 461-461 255 0 461 206 461 461l-461 0 0 461z m72 72l0-461 461 0c0 255-206 461-461 461z" horiz-adv-x="1000" />

<glyph glyph-name="chart-table" unicode="&#xe813;" d="M898 733l-658 0c-104 0-187-83-187-187l0-529c0-104 83-188 187-188l658 0c103 0 187 84 187 188l0 529c0 104-84 187-187 187z m-812-716l0 451 200 0 0-606-46 0c-85 0-154 70-154 155z m457-155l-224 0 0 196 224 0c0 0 0-196 0-196z m0 229l-224 0 0 172 224 0c0 0 0-172 0-172z m0 205l-224 0 0 172 224 0c0 0 0-172 0-172z m257-434l-224 0 0 196 224 0 0-196z m0 229l-224 0 0 172 224 0 0-172z m0 205l-224 0 0 172 224 0 0-172z m252-279c0-85-70-155-154-155l-65 0 0 196 219 0 0-41z m0 74l-219 0 0 172 219 0 0-172z m0 205l-219 0 0 172 219 0 0-172z m0 205l-966 0 0 45c0 85 69 154 154 154l658 0c84 0 154-69 154-154l0-45z" horiz-adv-x="1000" />

<glyph glyph-name="checkbox" unicode="&#xe814;" d="M955 768l-772 0c-63 0-114-51-114-114l0-772c0-63 51-114 114-114l772 0c63 0 114 51 114 114l0 772c0 63-51 114-114 114z m64-893c0-32-26-57-57-57l-786 0c-31 0-57 25-57 57l0 786c0 31 26 57 57 57l786 0c31 0 57-26 57-57l0-786z" horiz-adv-x="1000" />

<glyph glyph-name="checkbox-checked" unicode="&#xe815;" d="M250 328l-19-19 0 0c-14-14-14-35 0-49l259-259c27-27 71-27 98 0l610 610 0 0c14 14 14 36 0 49l-21 21 0 0c-13 13-35 13-48 0l-568-567c-13-14-35-14-48 0l-214 214 0 0c-14 13-36 13-49 0z" horiz-adv-x="1364" />

<glyph glyph-name="circle-back" unicode="&#xe816;" d="M964 163c-74-184-254-313-464-313-276 0-500 224-500 500 0 276 224 500 500 500 210 0 390-129 464-312l-69 0c-70 147-220 250-395 250-242 0-437-196-437-438 0-242 195-438 437-438 175 0 325 103 395 251l69 0 0 0z m-407 218l428 0c8 0 15-6 15-15l0-31c0-9-7-16-15-16l-428 0 146-145-44-45-199 199c-13 13-13 32 0 44l199 199 44-44-146-146z" horiz-adv-x="1000" />

<glyph glyph-name="circle-down" unicode="&#xe817;" d="M365 443l-42-41 177-177 177 177-42 41-135-135-135 135z m-365-93c0-276 224-500 500-500 276 0 500 224 500 500 0 276-224 500-500 500-276 0-500-224-500-500z m63 0c0 242 195 438 437 438 242 0 438-196 438-438 0-242-196-438-438-438-242 0-437 196-437 438z" horiz-adv-x="1000" />

<glyph glyph-name="circle-up" unicode="&#xe818;" d="M635 257l42 41-177 177-177-177 42-41 135 135 135-135z m365 93c0 276-224 500-500 500-276 0-500-224-500-500 0-276 224-500 500-500 276 0 500 224 500 500z m-62 0c0-242-196-438-438-438-242 0-437 196-437 438 0 242 195 438 437 438 242 0 438-196 438-438z" horiz-adv-x="1000" />

<glyph glyph-name="composite" unicode="&#xe819;" d="M555-91l-179 179 167 168c12 12 12 32 0 44-12 12-32 12-44 0l-190-190c-12-12-12-32 0-44l154-154h-372v805h416v-256c0-18 14-32 31-32h206v-50c0-17 14-31 32-31 17 0 31 14 31 31v82c0 2 0 4-1 6 0 0 0 1 0 2-1 1-1 2-1 3-1 1-1 2-1 2-1 1-1 2-2 3 0 1-1 2-1 2-1 1-1 1-1 2l-242 288c-6 7-14 11-24 11h-475c-17 0-31-14-31-31v-868c0-18 14-32 31-32h475c17 0 31 14 31 32 0 3 0 6-1 9-1 7-4 13-9 19z m15 749l138-166h-138v166z m398-559l-201 201c-12 12-32 12-45 0-12-12-12-32 0-44l180-180-168-167c-12-13-12-32 0-45 6-6 14-9 22-9s16 3 23 9l189 190c6 6 9 14 9 22s-3 17-9 23z m-332 187c-18 0-32-14-32-32v-344c0-17 14-32 32-32 17 0 31 15 31 32v344c0 18-14 32-31 32z" horiz-adv-x="1000" />

<glyph glyph-name="dashboard" unicode="&#xe81a;" d="M937 850h-749c-35 0-63-28-63-63v-124h-62c-35 0-63-28-63-63v-500c0-34 28-62 63-62h62v-125c0-35 28-63 63-63h749c35 0 63 28 63 63v874c0 35-28 63-63 63z m-781-750h-62c-17 0-31 14-31 31v438c0 17 13 31 31 31h62c17 0 32-14 32-31v-438c0-17-14-31-32-31z m782-156c0-18-15-32-32-32h-687c-17 0-31 14-31 32v94c35 0 62 28 62 62v500c0 34-28 62-62 63v93c0 18 14 32 31 32h687c17 0 32-14 32-32v-812z m-563 406v-250h63v250c0 0-17 0-63 0z m188 250v-500h62v500c0 0-30 0-62 0z m187-125v-375h63v375c0 0-33 0-63 0z" horiz-adv-x="1000" />

<glyph glyph-name="data-down" unicode="&#xe81b;" d="M798 82c33-38 85-38 118 0l425 495c32 38 18 69-32 69h-904c-50 0-64-30-31-69l424-495z" horiz-adv-x="1714" />

<glyph glyph-name="data-up" unicode="&#xe81c;" d="M798 618c33 38 85 38 118 0l425-495c32-38 18-69-32-69h-904c-50 0-64 30-31 69l424 495z" horiz-adv-x="1714" />

<glyph glyph-name="desc" unicode="&#xe81d;" d="M929 74l0 740c0 20-17 36-36 36l-71 0c-21 0-36-16-36-36l0-928c0-20 16-36 36-36l71 0c12 0 23 6 29 15l199 199c14 14 14 36-1 50l-50 50c-14 14-36 15-50 1l-91-91z m-929 740c0 20 16 36 36 36l571 0c20 0 36-15 36-36l0-71c0-20-16-36-36-36l-571 0c-20 0-36 15-36 36l0 71z m0-429c0 20 17 36 36 36l428 0c20 0 36-15 36-36l0-70c0-20-17-36-36-36l-428 0c-20 0-36 15-36 36l0 70z m0-428c0 20 15 36 36 36l286 0c19 0 35-15 35-36l0-71c0-20-15-36-35-36l-286 0c-20 0-36 15-36 36l0 71z" horiz-adv-x="1143" />

<glyph glyph-name="download" unicode="&#xe81e;" d="M563 288l0 531c0 17-15 31-32 31l-62 0c-18 0-31-14-31-31l0-531-126 0c-34 0-45-22-23-49l172-215c22-27 56-28 78 0l172 215c22 27 11 49-23 49l-125 0z m-500-188l-63 0 0-187c0-35 28-63 63-63l874 0c35 0 63 28 63 63l0 187-62 0 0-157c0-17-14-31-32-31l-812 0c-18 0-31 15-31 31l0 157z" horiz-adv-x="1000" />

<glyph glyph-name="dustbin" unicode="&#xe81f;" d="M844 725h-219v63c0 34-28 62-62 62h-251c-34 0-62-28-62-62v-63h-219c-17 0-31-14-31-31 0-17 14-31 31-31h813c17 0 31 14 31 31 0 17-14 31-31 31z m-281 0h-250v32c0 17 13 31 30 31h189c17 0 31-14 31-31v-32z m-500-62h750v-751c0-34-29-62-63-62h-625c-34 0-62 28-62 62v751z m62 0v-719c0-17 14-32 32-32h561c18 0 32 15 32 32v719h-625z m250-532c0-17-14-31-31-31-17 0-31 14-31 31v313c0 17 14 31 31 31 17 0 31-14 31-31v-313z m188 0c0-17-15-31-32-31-17 0-31 14-31 31v313c0 17 15 31 31 31 18 0 32-14 32-31v-313z" horiz-adv-x="875" />

<glyph glyph-name="email" unicode="&#xe820;" d="M1250 662l0 63c0 23-19 42-42 42l-1083 0c-23 0-42-19-42-42l0-63 557-395c15-11 39-11 54 0l556 395z m0-106l-529-384c-30-21-78-21-108 0l-530 384 0-581c0-23 19-42 42-42l1083 0c23 0 42 19 42 42l0 581z m-1167 294l1167 0c46 0 83-37 83-83l0-834c0-46-37-83-83-83l-1167 0c-46 0-83 37-83 83l0 834 0 0c0 46 37 83 83 83l0 0z" horiz-adv-x="1333" />

<glyph glyph-name="enlarge" unicode="&#xe821;" d="M875 635l-272-263c-13-12-33-12-45 1l-43 45c-12 12-12 32 1 44l272 263-132 0c-17 0-31 14-31 31l0 63c0 17 14 31 31 31l282 0c34 0 62-28 62-62l0-282c0-17-14-31-31-31l-63 0c-17 0-31 14-31 31l0 129 0 0z m-750-557l272 263c13 12 33 12 45 0l43-45c12-13 12-33-1-45l-272-263 132 0c17 0 31-14 31-31l0-63c0-17-14-31-31-31l-282 0c-34 0-62 28-62 62l0 282c0 17 14 31 31 31l63 0c17 0 31-14 31-31l0-129 0 0z" horiz-adv-x="1000" />

<glyph glyph-name="event" unicode="&#xe822;" d="M812 850h-749c-35 0-63-28-63-63v-812c0-69 56-125 125-125h687c35 0 63 28 63 63v874c0 35-28 63-63 63z m-312-62h125v-282c0-17-13-31-32-31h-61c-18 0-32 13-32 31v282z m313-844c0-18-15-32-32-32h-656c-34 0-62 29-62 63v63h750v-94z m0 156h-750v656c0 18 14 32 31 32h344v-313c0-35 28-62 63-62h123c36 0 64 28 64 62v313h93c17 0 32-14 32-32v-656z" horiz-adv-x="875" />

<glyph glyph-name="filter" unicode="&#xe823;" d="M955 850h-910c-39 0-53-26-30-58l353-503v-204l212-214c28-29 50-19 50 20v397h2l354 504c22 32 8 58-31 58z m-64-91l-272-381-51-76v-58-232c0-20-12-25-27-12l-110 101v187 16l-46 68-276 387c-12 16-5 29 15 29h752c20 0 27-13 15-29z m219-338h-70c-21 0-36-16-36-36v-70c0-21 16-36 36-36h70c21 0 37 16 37 36v70c0 21-17 36-37 36z m0-214h-70c-21 0-36-16-36-36v-71c0-20 16-36 36-36h70c21 0 37 17 37 36v71c0 21-17 36-37 36z m0-214h-70c-21 0-36-16-36-36v-71c0-21 16-36 36-36h70c21 0 37 16 37 36v71c0 21-17 36-37 36z" horiz-adv-x="1214" />

<glyph glyph-name="funnels" unicode="&#xe824;" d="M908 850h-874c-32 0-44-21-25-48l338-481v-192l206-208c23-24 41-16 41 17v383h1l339 481c18 27 7 48-26 48z m-66-83l-258-362 0 0-49-72v-57-220c0-16-10-20-21-10l-108 98v177 15l-43 64-263 367c-9 14-3 24 13 24h717c16 0 22-11 12-24z" horiz-adv-x="1000" />

<glyph glyph-name="gears" unicode="&#xe825;" d="M535 281q0 67-44 115t-109 48-108-48-45-115 45-115 108-47 109 47 44 115z m459-325q0 33-22 57t-54 24-54-24-23-57q0-34 23-57t54-24 54 24 22 57z m0 650q0 33-22 57t-54 24-54-24-23-57q0-33 23-57t54-24 54 24 22 57z m-229-267l0-118q0-6-4-12t-10-7l-92-15q-7-22-20-48 21-31 54-73 4-6 4-13 0-8-4-12-13-19-49-57t-47-38q-7 0-13 5l-68 57q-22-12-46-20-7-68-14-98-4-15-18-15l-111 0q-7 0-12 4t-6 12l-14 97q-20 6-45 19l-70-56q-4-5-12-5-7 0-13 5-86 85-86 102 0 6 4 12 6 9 25 34t28 39q-14 28-21 52l-91 15q-6 0-10 6t-4 12l0 118q0 6 4 12t10 7l92 15q7 22 19 48-20 31-53 73-5 7-5 13 0 8 5 13 13 19 49 56t47 38q6 0 12-5l69-57q20 12 46 20 7 69 14 98 4 15 18 15l111 0q6 0 12-4t6-11l14-98q20-6 44-19l71 56q5 5 12 5 6 0 12-5 87-85 87-102 0-6-5-12-7-10-25-34t-27-38q14-31 21-52l91-15q5-1 10-7t4-12z m382-338l0-89q0-11-89-20-7-17-18-33 31-72 31-88 0-2-3-4-72-45-74-45-4 0-27 30t-31 43q-12-2-18-2t-18 2q-8-14-31-43t-28-30q-1 0-74 45-2 2-2 4 0 16 30 88-10 16-18 33-89 9-89 20l0 89q0 10 89 19 8 19 18 33-30 72-30 88 0 2 2 4 3 2 21 13t36 22 17 10q5 0 28-30t31-43q12 2 18 2t18-2q30 46 55 72l3 1q3 0 75-45 2-2 2-4 0-16-30-88 10-14 17-33 89-9 89-19z m0 650l0-89q0-10-89-20-7-17-18-33 31-72 31-88 0-2-3-4-72-45-74-45-4 0-27 30t-31 43q-12-1-18-1t-18 1q-8-13-31-43t-28-30q-1 0-74 45-2 2-2 4 0 16 30 88-10 16-18 33-89 10-89 20l0 89q0 10 89 19 8 19 18 33-30 72-30 88 0 3 2 4 3 2 21 13t36 22 17 10q5 0 28-30t31-42q12 1 18 1t18-1q30 45 55 71l3 1q3 0 75-44 2-2 2-5 0-16-30-88 10-14 17-33 89-9 89-19z" horiz-adv-x="1000" />

<glyph glyph-name="go-back" unicode="&#xe826;" d="M503 296l251 0c282 0 524-175 621-423l1 0c3-9 11-15 20-15 11 0 21 10 21 21 0 0 0 1 0 1l0 0c0 0 0 0 0 1 0 0 0 1 0 1-46 439-417 781-868 781l-46 0 0 146c0 46-28 59-62 28l-335-302c-35-31-35-81 0-111l335-302c35-31 62-18 62 28l0 146z" horiz-adv-x="1417" />

<glyph glyph-name="go-forword" unicode="&#xe827;" d="M914 296l-251 0c-283 0-524-175-621-423l-1 0c-3-9-11-15-20-15-12 0-21 10-21 21 0 0 0 1 0 1l0 0c0 0 0 0 0 1 0 0 0 1 0 1 46 439 417 781 868 781l46 0 0 146c0 46 28 59 62 28l335-302c35-31 34-81 0-111l-335-302c-35-31-62-18-62 28l0 146z" horiz-adv-x="1333" />

<glyph glyph-name="graph" unicode="&#xe828;" d="M63 850l875 0c34 0 62-28 62-62l0-876c0-34-28-62-62-62l-875 0c-35 0-63 28-63 62l0 876 0 0c0 34 28 62 63 62l0 0z m31-62l0 0c-17 0-31-14-31-32l0-812c0-18 14-32 31-32l0 0 812 0c18 0 32 14 32 32l0 0 0 812c0 18-14 32-32 32l-812 0z m-31-641l158 159c24 24 64 24 88 0l63-63c12-12 32-12 44 0l250 250c25 25 64 25 88 0l184-183 0-93-206 205c-12 12-32 12-44 0l-250-250c-24-25-64-25-88 0l-63 62c-12 12-32 12-44 0l-180-180 0 93z m281 328c-52 0-94 42-94 94 0 52 42 94 94 94 52 0 94-42 94-94 0-52-42-94-94-94z m0 63c17 0 31 14 31 31 0 17-14 31-31 31-17 0-31-14-31-31 0-17 14-31 31-31z" horiz-adv-x="1000" />

<glyph glyph-name="help" unicode="&#xe829;" d="M500 850c-276 0-500-224-500-500s224-500 500-500 500 224 500 500-224 500-500 500z m0-917c-230 0-417 187-417 417 0 230 187 417 417 417 230 0 417-187 417-417 0-230-187-417-417-417z m7 670c-47 0-84-14-111-44-27-28-40-67-40-117h67c0 30 5 53 17 70 13 19 34 29 62 29 23 0 42-7 55-20 12-14 18-32 18-56 0-18-6-34-18-50l-11-13c-39-37-63-65-72-84-9-18-13-40-13-65v-11h69v11c0 17 3 32 10 45 6 12 15 25 27 36 30 27 48 45 53 53 16 21 25 49 25 83 0 40-13 73-39 97-25 24-58 36-99 36z m-43-434v-72h72v72c0 0-36 0-72 0z" horiz-adv-x="1000" />

<glyph glyph-name="ios" unicode="&#xe82a;" d="M839 249c-1 126 102 187 107 189-58 86-149 98-182 99-77 8-151-46-190-46-39 0-100 45-164 44-85-1-162-49-206-125-88-152-22-377 63-501 42-60 92-128 157-126 63 3 87 41 163 41 76 0 98-41 164-39 68 1 111 61 152 122 48 70 68 138 69 141-2 1-132 51-133 201m-126 370c35 42 59 100 52 158-50-2-110-33-146-75-33-37-61-97-53-154 56-4 113 29 147 71" horiz-adv-x="1000" />

<glyph glyph-name="ipad" unicode="&#xe82b;" d="M960 797h-782a53 53 0 0 1-54-54v-924a53 53 0 0 1 54-53h782a53 53 0 0 1 53 53v924a53 53 0 0 1-53 54z m-391-996a36 36 0 1 0 0 71 36 36 0 0 0 0-71z m338 107h-676v782h676v-782z" horiz-adv-x="1000" />

<glyph glyph-name="live" unicode="&#xe82c;" d="M531 326l0 337-62 0 0-375 3 0 267-155 32 55-240 138z m-406 68l-60 0c22 221 208 394 435 394 242 0 438-196 438-438 0-242-196-438-438-438-83 0-161 24-227 64l-28-56c75-45 162-70 255-70 276 0 500 224 500 500 0 276-224 500-500 500-261 0-476-201-498-456l-1 0 0-8c0-2 0-3 0-5l0 0 0-111 124 124z" horiz-adv-x="1000" />

<glyph glyph-name="loginout" unicode="&#xe82d;" d="M781 100h-62c-17 0-31-14-31-31v-63c0-17-14-31-32-31h-499c-18 0-32 14-32 31v688c0 17 14 31 32 31h499c17 0 32-14 32-31v-63c0-17 14-31 31-31h62c18 0 32 14 32 31v156c0 35-28 63-63 63h-688c-34 0-62-28-62-63v-874c0-35 28-63 62-63h688c35 0 63 28 63 63v156c0 17-14 31-32 31z m164 305l-110 110c-13 13-32 13-45 0l-18-18c-12-12-12-32 0-44l41-40h-407c-17 0-31-14-31-32v-62c0-17 14-31 31-31h385l-19-19c-12-13-12-32 0-45l18-18c13-12 32-12 45 0l110 111c25 24 25 64 0 88z" horiz-adv-x="1000" />

<glyph glyph-name="mail-reply-all" unicode="&#xe82e;" d="M125 850l688 0c34 0 62-28 62-62l0-876c0-34-28-62-62-62l-688 0c-69 0-125 56-125 125l0 750 0 0c0 69 56 125 125 125l0 0z m0-62l0 0c-34 0-62-28-62-63l0-750c0-35 28-63 62-63l656 0c18 0 32 14 32 32l0 812c0 18-14 32-32 32l-656 0z m94-125l187 0c18 0 32-14 32-32l0-62c0-17-14-31-32-31l-187 0c-17 0-31 14-31 31l0 62c0 18 14 32 31 32z m0-250l437 0c18 0 32-14 32-32l0-62c0-17-14-31-32-31l-437 0c-17 0-31 14-31 31l0 62c0 18 14 32 31 32z m0-250l437 0c18 0 32-14 32-32l0-62c0-17-14-31-32-31l-437 0c-17 0-31 14-31 31l0 62c0 18 14 32 31 32z" horiz-adv-x="875" />

<glyph glyph-name="message" unicode="&#xe82f;" d="M261-25l0 0 68 0c22-37 62-63 109-63 46 0 86 26 108 63l68 0c-25-73-95-125-176-125-82 0-152 52-177 125z m-75 500l-55-339c-1-1-1-3-1-5 0-17 14-31 32-31l551 0c2 0 3 0 5 0 17 3 29 19 26 36l-55 339 123 0 54-430c4-34-20-65-54-70-3 0-6 0-8 0l-733 0c-35 0-63 28-63 63 0 2 0 5 1 7l53 430 124 0z m-123 0c0 207 167 375 375 375 207 0 375-168 375-375l-125 0c0 138-112 250-250 250-139 0-250-112-250-250l-125 0z" horiz-adv-x="875" />

<glyph glyph-name="minus" unicode="&#xe830;" d="M910 304l-682 0c-13 0-23-10-23-23s10-22 23-22l682 0c13 0 23 10 23 22s-10 23-23 23z" horiz-adv-x="1000" />

<glyph glyph-name="overview" unicode="&#xe831;" d="M353 791h-294c-33 0-59-26-59-59v-294c0-33 26-59 59-59h294c33 0 59 27 59 59v294c0 33-27 59-59 59z m0-323c0-17-13-30-29-30h-236c-16 0-29 13-29 30v235c0 16 13 29 29 29h236c16 0 29-12 29-29v-235z m0-206h-294c-33 0-59-27-59-59v-294c0-33 26-59 59-59h294c33 0 59 26 59 59v294c0 33-27 59-59 59z m0-324c0-16-13-29-29-29h-236c-16 0-29 12-29 29v236c0 16 13 29 29 29h236c16 0 29-13 29-29v-236z m529 324h-294c-33 0-59-27-59-59v-294c0-33 27-59 59-59h294c34 0 59 26 59 59v294c0 33-26 59-59 59z m0-324c0-16-12-29-29-29h-235c-17 0-30 12-30 29v236c0 16 13 29 30 29h235c16 0 29-13 29-29v-236z m-195 467c23-23 61-23 84 0l145 145c23 23 23 61 0 84l-145 145c-23 23-61 23-84 0l-145-145c-23-23-23-61 0-84l145-145z m-83 208l104 104c12 11 30 11 42 0l104-104c11-12 11-31 0-42l-104-104c-12-11-31-11-42 0l-104 104c-11 12-11 30 0 42z" horiz-adv-x="941" />

<glyph glyph-name="pc" unicode="&#xe832;" d="M1003 686l-871 0c-34 0-62-28-62-62l0-529c0-34 28-62 62-62l404 0 0-94-155 0c-18 0-32-14-32-31s14-31 32-31l373 0c17 0 31 14 31 31s-14 31-31 31l-156 0 0 94 405 0c34 0 62 28 62 62l0 529c0 34-28 62-62 62z m0-591l-871 0 0 529 871 0 0-529z" horiz-adv-x="1000" />

<glyph glyph-name="power-manager" unicode="&#xe833;" d="M937 475h-4c-30 212-213 375-433 375s-403-163-433-375h-4c-35 0-63-28-63-62v-501c0-34 28-62 63-62h874c35 0 63 28 63 62v501c0 34-28 62-63 62z m-437 313c186 0 340-136 370-313h-740c30 177 184 313 370 313z m438-844c0-17-14-32-32-32h-812c-18 0-31 15-31 32v437c0 18 13 32 31 32h812c18 0 32-15 32-32v-437z m-438 406c-52 0-94-42-94-94 0-41 26-75 63-88v-100c0-17 14-30 31-30 17 0 31 13 31 30v100c37 13 63 47 63 88 0 52-42 94-94 94z" horiz-adv-x="1000" />

<glyph glyph-name="question" unicode="&#xe834;" d="M500 850c-276 0-500-224-500-500 0-276 224-500 500-500 276 0 500 224 500 500 0 276-224 500-500 500z m0-875c-207 0-375 168-375 375s168 375 375 375 375-168 375-375-168-375-375-375z m3 656c-56 0-99-15-131-48-31-31-47-74-47-129h79c0 33 7 59 20 77 15 22 40 32 74 32 27 0 48-7 63-22 15-15 22-36 22-62 0-19-7-37-21-55l-13-14c-46-41-75-72-84-93-11-19-15-43-15-71v-13h80v13c0 18 4 34 12 49 6 14 17 27 31 39 36 31 57 51 63 59 19 24 29 55 29 91 0 45-15 81-45 108-30 27-69 39-117 39z m-54-468v-82h82v82c0 0-21 0-82 0z" horiz-adv-x="1000" />

<glyph glyph-name="radio" unicode="&#xe835;" d="M567-288c-76 0-150 15-220 45-68 29-128 70-181 122-107 107-166 250-166 402 0 152 59 295 166 402 53 53 113 94 181 122 70 30 144 45 220 45 77 0 151-15 221-45 68-28 128-69 180-122 108-107 167-250 167-402 0-152-59-295-167-402-52-52-112-93-180-122-70-30-144-45-221-45z m0 1088c-284 0-516-233-516-519 0-286 232-518 516-518s517 232 517 518c0 286-232 519-517 519z" horiz-adv-x="1000" />

<glyph glyph-name="radio-checked" unicode="&#xe836;" d="M569 820c-297 0-539-242-539-539s242-539 539-539 539 242 539 539-242 539-539 539z m0-1031c-272 0-493 221-493 492s221 493 493 493 492-221 492-493-221-492-492-492z m0 492m-343 0a343 343 0 1 1 686 0 343 343 0 1 1-686 0z" horiz-adv-x="1000" />

<glyph glyph-name="react-resizable-handle" unicode="&#xe837;" d="M792 850l166 0 0 0c23 0 42-19 42-42l0-875 0 0c0-46-37-83-83-83l-875 0 0 0c-23 0-42 19-42 42l0 166 0 0c0 23 19 42 42 42l666 0 0 0c23 0 42 19 42 42l0 666 0 0c0 23 19 42 42 42z" horiz-adv-x="1000" />

<glyph glyph-name="refresh" unicode="&#xe838;" d="M938 592c-86 154-250 258-438 258-276 0-500-224-500-500 0-276 224-500 500-500 210 0 390 129 464 313 0 0-28 0-62 0l-7 0c-70-148-220-251-395-251-242 0-437 196-437 438 0 242 195 438 437 438 175 0 325-103 395-250l-145 0 0-63 187 0c35 0 63 28 63 63l0 187-62 0 0-133z" horiz-adv-x="1000" />

<glyph glyph-name="retention" unicode="&#xe839;" d="M500 850c-276 0-500-224-500-500 0-276 224-500 500-500 276 0 500 224 500 500 0 276-224 500-500 500z m0-938c-242 0-437 196-437 438s195 438 437 438 438-196 438-438-196-438-438-438z m175 627c1 1 1 3 1 4 0 1 0 3-1 4s-2 2-4 4l-30 18c-3 0-5-1-6-1s-3-3-4-4l-318-430c0-2 0-3 0-4s2-2 4-3l34-19c1 0 2 1 4 2s3 2 5 3l312 421c1 2 2 3 3 5z m-237-64c0 52-42 94-94 94s-94-42-94-94 42-94 94-94 94 42 94 94z m-138 0c0 24 20 44 44 44s44-20 44-44-20-44-44-44-44 20-44 44z m356-156c-51 0-93-42-93-94s42-94 93-94 94 42 94 94-42 94-94 94z m0-138c-24 0-43 20-43 44s19 44 43 44 44-20 44-44-20-44-44-44z" horiz-adv-x="1000" />

<glyph glyph-name="return" unicode="&#xe83a;" d="M964 163c-74-184-254-313-464-313-276 0-500 224-500 500 0 276 224 500 500 500 210 0 390-129 464-312l-69 0c-70 147-220 250-395 250-242 0-437-196-437-438 0-242 195-438 437-438 175 0 325 103 395 251l69 0 0 0z m-407 218l428 0c8 0 15-6 15-15l0-31c0-9-7-16-15-16l-428 0 146-145-44-45-199 199c-13 13-13 32 0 44l199 199 44-44-146-146z" horiz-adv-x="1000" />

<glyph glyph-name="right" unicode="&#xe83b;" d="M412-63c-14-15-37-15-51 0l-279 279c-14 14-14 37 0 51l0 0c14 14 36 14 51 0l279-280c14-14 14-36 0-50l0 0z m-50 0c-14 14-14 37 0 51l643 638c14 14 37 14 51 0l0 0c14-14 14-37 0-51l-644-638c-14-14-36-14-50 0l0 0z" horiz-adv-x="1000" />

<glyph glyph-name="right-circle" unicode="&#xe83c;" d="M569 813c-294 0-532-238-532-532 0-294 238-532 532-532 294 0 532 238 532 532 0 294-238 532-532 532z m302-367l-383-393c-9-9-20-13-32-12-11-1-23 3-31 12l-159 168c-16 17-14 45 4 63 18 17 46 17 63 0l124-132 348 357c17 17 45 17 63 0 18-18 20-46 3-63z" horiz-adv-x="1000" />

<glyph glyph-name="route" unicode="&#xe83d;" d="M906 543l0-474c0-121-98-219-218-219-121 0-219 98-219 219l0 281 0 281c0 86-70 157-156 157-87 0-157-70-157-157l0-474c37-13 63-47 63-88 0-52-42-94-94-94-52 0-94 42-94 94 0 41 26 75 63 88l0 474c0 121 98 219 219 219 120 0 218-98 218-219l0-15 0-16 0-531c0-87 70-157 157-157 86 0 156 71 156 157l0 474c-37 13-63 47-63 88 0 52 42 94 94 94 52 0 94-42 94-94 0-41-26-75-63-88z m-781-505c17 0 31 14 31 31 0 17-14 31-31 31-17 0-31-14-31-31 0-17 14-31 31-31z m750 562c17 0 31 14 31 31 0 18-14 32-31 32-17 0-31-14-31-32 0-17 14-31 31-31z" horiz-adv-x="1000" />

<glyph glyph-name="save" unicode="&#xe83e;" d="M937 850h-874c-35 0-63-28-63-63v-874c0-35 28-63 63-63h874c35 0 63 28 63 63v874c0 35-28 63-63 63z m-687-62h500v-344c0-17-14-31-31-31h-438c-17 0-31 14-31 31v344z m688-844c0-18-14-32-32-32h-812c-18 0-31 14-31 32v812c0 18 13 32 31 32h94v-376c0-34 27-62 62-62h500c34 0 63 28 63 62v376h93c18 0 32-14 32-32v-812z m-594 531c17 0 31 14 31 31v188c0 18-14 31-31 31-17 0-31-14-31-31v-188c0-18 14-31 31-31z" horiz-adv-x="1000" />

<glyph glyph-name="save-as" unicode="&#xe83f;" d="M400 783l-333 0c-37 0-67-30-67-67l0-799c0-37 30-67 67-67l933 0c37 0 67 30 67 67l0 466-67 0 0-400c0-36-30-66-67-66l-799 0c-37 0-67 30-67 66l0 667c0 37 30 67 67 67l266 0 0 66z m509-1c-270-91-469-334-496-628l67 0c27 266 209 485 453 566l0-137 67 0 0 200c0 37-30 67-67 67l-200 0 0-67 168 0c2 0 5 0 8-1z" horiz-adv-x="1067" />

<glyph glyph-name="search" unicode="&#xe840;" d="M625 119c-64-43-141-69-225-69-221 0-400 179-400 400 0 221 179 400 400 400 221 0 400-179 400-400 0-113-47-216-123-288l226-243c13-14 12-35-2-47-13-13-34-12-46 1l-228 245c-1 0-1 1-2 1z m-225-2c184 0 333 149 333 333 0 184-149 333-333 333-184 0-333-149-333-333 0-184 149-333 333-333z" horiz-adv-x="933" />

<glyph glyph-name="server" unicode="&#xe841;" d="M714 724l-290 0c-10 0-18-8-18-18l0-850c0-10 8-18 18-18l290 0c10 0 18 8 18 18l0 850c0 10-8 18-18 18z m-145-724c-36 0-64 29-64 64s28 65 64 65c35 0 64-29 64-65s-29-64-64-64z m118 328c0-10-8-18-18-18l-200 0c-10 0-18 8-18 18l0 19c0 10 8 18 18 18l200 0c10 0 18-8 18-18l0-19z m0 93c0-11-8-19-18-19l-200 0c-10 0-18 8-18 19l0 18c0 10 8 18 18 18l200 0c10 0 18-8 18-18l0-18z m0 92c0-11-8-19-18-19l-200 0c-10 0-18 9-18 19l0 18c0 10 8 19 18 19l200 0c10 0 18-9 18-19l0-18z m0 92c0-10-8-19-18-19l-200 0c-10 0-18 9-18 19l0 18c0 10 8 19 18 19l200 0c10 0 18-9 18-19l0-18z m451 21c0 9-7 17-17 17-85 8-171 16-257 24-1 0-4 0-6-1l-101-25 0-788 104-15c1 0 3 0 3 0 86 8 172 16 257 24 10 1 17 9 17 17 0 201 0 547 0 747z m-251-54c0 10 8 17 17 16 59-4 118-8 178-13 9 0 16-8 16-17l0-16c0-8-7-15-16-15-60 4-119 7-178 11-9 0-17 8-17 17l0 17z m211-268c0-9-7-16-16-16-60-1-119-2-178-2-9 0-17 7-17 16l0 17c0 10 8 17 17 17 59 0 118 0 178 0 9 0 16-8 16-16l0-16z m-16 64c-60 0-119 1-178 2-9 0-17 7-17 17l0 17c0 9 8 16 17 16 59-1 118-3 178-4 9-1 16-8 16-17 0-6 0-9 0-16 0-9-7-16-16-15z m16 95c0-9-7-16-16-16-60 2-119 5-178 7-9 0-17 8-17 17l0 17c0 9 8 16 17 16 59-3 118-6 178-9 9 0 16-8 16-16l0-16z m-824 204c-86-8-172-16-258-24-9 0-16-8-16-17 0-200 0-546 0-746 0-9 7-17 16-18 86-7 172-16 258-24 0 0 1 0 3 0l104 15 0 788-101 25c-3 1-5 1-6 1z m-24-365c0-9-7-16-16-16-59 0-119 1-178 2-9 0-16 7-16 16l0 16c0 8 7 16 16 16 59 0 119 0 178 0 9 0 16-7 16-17l0-17z m0 85c0-10-7-17-16-17-59-1-119-2-178-2-9-1-16 6-16 15 0 7 0 10 0 16 0 9 7 16 16 17 59 1 119 3 178 4 9 0 16-7 16-16l0-17z m0 84c0-9-7-17-16-17-59-2-119-4-178-7-9 0-16 7-16 16l0 16c0 9 7 16 16 16 59 3 119 6 178 9 9 0 16-7 16-16l0-17z m0 84c0-9-7-17-16-17-59-4-119-7-178-11-9 0-16 7-16 15l0 16c0 9 7 17 16 17 59 5 119 9 178 13 9 1 16-7 16-16l0-17z" horiz-adv-x="1001" />

<glyph glyph-name="setting" unicode="&#xe842;" d="M867 671l0 0c0 0 0 0 0 0z m-270 154l0 0c0 0 0 0 0 0z m-194-1c0 0 0 0 0 0l0 0z m-373-327l0 0c0 0 0 0 0 0z m103-468l1 0c0 0-1 0-1 0z m464-153c0 0 0 0 0 0l0 0z m272 791l-137-54-113 64-2 15-19 127-196 0-21-142-113-64-14 5-123 49-97-164 115-88 0-129-12-10-103-79 97-164 137 54 113-64 3-15 18-127 196 0 21 142 113 64 14-5 123-49 98 164-116 89 0 129 12 9 104 79-98 164z m-556-317c0 103 84 188 187 188 103 0 188-85 188-188 0-103-85-187-188-187-103 0-187 84-187 187z m62 0c0-69 56-125 125-125 69 0 125 56 125 125 0 69-56 125-125 125-69 0-125-56-125-125z" horiz-adv-x="1000" />

<glyph glyph-name="slide-left" unicode="&#xe843;" d="M500 850c-276 0-500-224-500-500s224-500 500-500 500 224 500 500-224 500-500 500z m0-938c-242 0-437 196-437 438s195 438 437 438 438-196 438-438-196-438-438-438z m52 615l-177-177 177-177 41 42-135 135 135 135-41 42z" horiz-adv-x="1000" />

<glyph glyph-name="slide-right" unicode="&#xe844;" d="M500 850c276 0 500-224 500-500 0-276-224-500-500-500-276 0-500 224-500 500 0 276 224 500 500 500z m0-62c-242 0-437-196-437-438s195-438 437-438 438 196 438 438-196 438-438 438z m-52-615l-41 42 135 135-135 135 41 42 177-177-177-177z" horiz-adv-x="1000" />

<glyph glyph-name="tree-leaf" unicode="&#xe845;" d="M1594 631c-136 0-250-96-276-225h-793v-112h793c26-129 140-225 276-225 155 0 281 125 281 281 0 155-126 281-281 281z" horiz-adv-x="2400" />

<glyph glyph-name="update" unicode="&#xe846;" d="M500 850c-276 0-500-224-500-500s224-500 500-500 500 224 500 500-224 500-500 500z m0-938c-242 0-437 196-437 438s195 438 437 438 438-196 438-438-196-438-438-438z m17 599c-10 15-25 15-34 0l-91-135c-10-15-3-26 14-26h63v-312h62v312h63c18 0 23 12 14 26l-91 135z m-142 152h250v-63h-250v63z" horiz-adv-x="1000" />

<glyph glyph-name="upload" unicode="&#xe847;" d="M0 787c0 35 28 63 63 63l874 0c35 0 63-28 63-63l0-874c0-35-28-63-63-63l-874 0c-35 0-63 28-63 63l0 874z m63-31l0-812c0-18 13-32 31-32l812 0c18 0 32 14 32 32l0 812c0 18-14 32-32 32l-812 0c-18 0-31-14-31-32z m280-530l139 135c11 11 20 22 26 33 7 11 10 23 10 38 0 17-5 30-16 40-11 10-25 15-41 15-17 0-31-6-42-18-10-11-17-26-19-43l-59 9c2 15 6 28 12 41 7 12 16 23 26 32 11 9 23 16 37 22 14 5 29 8 46 8 15 0 30-3 45-7 14-4 27-11 38-20 11-9 20-20 27-33 6-13 9-28 9-45 0-12-1-23-4-32-3-10-7-20-13-29-5-8-11-17-18-25-7-8-14-15-22-23l-104-98 162 0 0-56-239 0 0 56z m393 155l17 0c9 0 18 1 27 2 9 2 17 5 24 9 8 4 14 9 18 16 5 7 7 16 7 27 0 8-1 16-4 22-3 6-8 12-13 16-5 5-11 8-18 10-7 3-14 4-22 4-14 0-27-4-37-13-9-8-16-19-20-33l-57 14c3 13 8 24 15 34 8 10 16 18 27 26 10 7 22 12 34 16 13 5 27 7 41 7 15 0 30-3 44-7 14-4 27-10 37-19 11-8 19-18 25-30 6-12 9-27 9-43 0-19-5-36-17-51-12-15-27-25-47-30l0-1c22-4 40-14 54-29 13-16 20-35 20-57 0-18-4-35-11-49-7-13-17-25-29-34-12-9-25-16-40-20-15-5-30-7-45-7-15 0-30 1-43 4-14 4-26 9-37 15-12 7-22 16-30 27-9 11-16 23-20 38l56 18c5-14 13-26 25-36 12-10 28-15 47-15 8 0 16 1 23 4 8 2 15 5 22 10 6 5 11 11 15 18 4 8 6 17 6 28 0 11-3 21-9 29-5 8-12 14-21 18-8 5-17 8-28 10-10 2-20 3-29 3l-16 0 0 49z m-542 72l-71-58-35 42 111 90 56 0 0-358-61 0 0 284z" horiz-adv-x="1000" />

<glyph glyph-name="user" unicode="&#xe848;" d="M1066-109c0-18-3-35-8-51-151-61-328-96-517-96-163 0-316 26-452 72-11 24-17 49-17 75 0 131 152 242 359 277-88 68-148 201-148 354 0 223 127 299 283 299 157 0 283-76 283-299 0-152-59-285-147-354 210-33 364-145 364-277z m-355 244c-42-26-91-41-145-41-52 0-100 14-140 38-1-3-2-6-2-9 0-37 65-66 145-66s144 29 144 66c0 4-1 8-2 12z" horiz-adv-x="1000" />

<glyph glyph-name="user-filter" unicode="&#xe849;" d="M375 350c-138 0-250 112-250 250s112 250 250 250 250-112 250-250-112-250-250-250z m0 63c104 0 188 83 188 187s-84 188-188 188-187-84-187-188 83-187 187-187z m-375-344c0 121 98 219 219 219h312c121 0 219-99 219-219v-156c0-35-28-63-63-63h-624c-35 0-63 27-63 63v156z m63 0v-125c0-18 14-32 31-32h562c17 0 32 14 32 32v125c0 87-70 156-157 156h-312c-86 0-156-70-156-156z m843 656h63c17 0 31-14 31-31v-63c0-17-14-31-31-31h-63c-17 0-31 14-31 31v63c0 17 14 31 31 31z m0-250h63c17 0 31-14 31-31v-63c0-17-14-31-31-31h-63c-17 0-31 14-31 31v63c0 17 14 31 31 31z m0-250h63c17 0 31-14 31-31v-63c0-17-14-31-31-31h-63c-17 0-31 14-31 31v63c0 17 14 31 31 31z" horiz-adv-x="1000" />

<glyph glyph-name="usergroup" unicode="&#xe84a;" d="M813 350h-188v-9c35-10 65-29 91-53h97c69 0 125-56 125-125v-95c0-17-15-30-32-30h-93v-63h125c34 0 62 28 62 62v126c0 103-84 187-187 187z m-94 125c-21 0-40 5-57 14-10-19-22-37-35-52 27-16 58-24 92-24 103 0 187 83 187 187s-84 188-187 188c-34 0-65-9-92-25 13-15 25-33 35-52 17 9 36 14 57 14 69 0 125-56 125-125s-56-125-125-125z m-344-125c138 0 250 112 250 250s-112 250-250 250-250-112-250-250 112-250 250-250z m0 438c104 0 188-84 188-188s-84-187-188-187-187 83-187 187 83 188 187 188z m156-500h-312c-121 0-219-98-219-219v-156c0-36 28-63 63-63h624c35 0 63 28 63 63v156c0 120-98 219-219 219z m157-344c0-18-15-32-32-32h-562c-17 0-31 14-31 32v125c0 86 70 156 156 156h312c87 0 157-69 157-156v-125z" horiz-adv-x="1000" />

<glyph glyph-name="warning" unicode="&#xe84b;" d="M500-150c-276 0-500 224-500 500 0 276 224 500 500 500 276 0 500-224 500-500 0-276-224-500-500-500z m0 71c237 0 429 192 429 429 0 237-192 429-429 429-237 0-429-192-429-429 0-237 192-429 429-429z m-36 250l72 0 0-71-72 0 0 71z m0 429l72 0 0-357-72 0 0 357z" horiz-adv-x="1000" />

<glyph glyph-name="web" unicode="&#xe84c;" d="M606 722c0 0-102 14-256-101 0 0-138-127-148-224 0 0 149 202 404 325z m440-228c28 26 36 120 36 120 9 98-37 139-37 139-77 79-263 15-263 15-236-75-431-259-431-259-309-270-332-547-332-547-14-190 150-191 150-191 170-9 250 52 260 60 106-56 203-53 203-53 376 24 451 323 451 323l-250 0c-56-135-223-108-223-108-164 33-166 208-166 208l663 0 0 0c8 126-20 221-61 293z m-209 180c-249-147-308-217-308-217 59 50 140 46 140 46 185-20 179-176 179-176l-404 0c16 63 38 90 47 99-171-145-275-361-275-361 32-94 117-177 189-220-54-36-116-41-116-41-151-18-146 100-146 100 4 122 127 314 127 314 112 160 267 294 267 294 153 127 285 188 285 188 139 70 203 16 203 16l0 0 0 0c82-61 25-185 12-209-82 132-200 167-200 167z" horiz-adv-x="1000" />

<glyph glyph-name="wrong" unicode="&#xe84d;" d="M985 647l-50 50-366-366-366 366-50-50 366-366-366-366 50-50 366 366 366-366 50 50-366 366z" horiz-adv-x="1000" />

<glyph glyph-name="wrong-circle" unicode="&#xe84e;" d="M500 451l-177 176 0 0c-14 14-36 14-50 0l-51-50c-14-14-14-37 0-51l177-176-177-177c-14-14-14-37 0-51l51-50c14-14 36-14 50 0l177 177 177-177c14-14 36-14 50 0l51 50c14 14 14 37 0 51l-177 177 177 176c14 14 14 37 0 51l-51 50c-14 14-36 14-50 0l0 0-177-176z m0-601c-276 0-500 224-500 500 0 276 224 500 500 500 276 0 500-224 500-500 0-276-224-500-500-500z" horiz-adv-x="1000" />

<glyph glyph-name="wrong-small" unicode="&#xe84f;" d="M516 477l-206 206 0 0c-16 16-43 16-59 0l0 0-59-59c-16-16-16-42 0-59l206-206-206-206c-16-16-16-43 0-59l59-59 0 0c16-16 43-16 59 0l206 207 206-207c16-16 43-16 59 0l0 0 59 59c16 16 16 43 0 59l-206 206 206 206c16 17 16 43 0 59l-59 59 0 0c-16 16-43 16-59 0l0 0-206-206z" horiz-adv-x="1000" />

<glyph glyph-name="11" unicode="&#xe850;" d="M923-150h-868c-21 0-37 17-37 37v925c-1 21 16 38 37 38h485c21 0 37-17 37-37 0-20-16-38-37-38h-448v-851h794v426c0 21 17 37 37 37 21 0 37-17 37-37v-463c0-20-16-37-37-37z m-464 463c-10 0-19 4-26 11-15 15-15 38 0 53l463 463c15 15 38 15 53 0 15-15 15-38 0-53l-464-464c-7-7-17-10-26-10z" horiz-adv-x="1000" />

<glyph glyph-name="13" unicode="&#xe851;" d="M498-139c-269 0-488 219-488 488s219 487 488 487 488-219 488-487-220-488-488-488z m0 906c-231 0-419-187-419-418s188-418 418-418 418 188 418 418-187 418-417 418z m219-486h-260c-19 0-35 16-35 35v280c0 19 16 35 35 35 19 0 35-16 35-35v-246h225c19 0 35-16 35-35s-16-34-35-34z" horiz-adv-x="1000" />

<glyph glyph-name="14" unicode="&#xe852;" d="M987 760c-6 12-18 19-31 19h-900c-13 0-25-7-31-19s-4-26 4-36l357-449v-251c0-14 8-26 21-31l191-81c4-2 9-3 13-3 7 0 13 2 19 6 9 6 15 17 15 28v356l338 425c8 10 9 24 4 36z" horiz-adv-x="1000" />

<glyph glyph-name="15" unicode="&#xe853;" d="M241-26l616 616c12 12 12 32 0 44l-132 132c-12 12-32 12-44 0l-615-615 0-146c0-17 14-31 31-31l144 0z m-232 207l650 651c25 24 64 24 88 0l176-176c24-24 24-64 0-88l-650-650 0 0c-6-6-13-9-21-9l-190-1c-34 0-62 28-62 62l0 190 0 0c0 8 3 15 9 21z" horiz-adv-x="941" />

<glyph glyph-name="16" unicode="&#xe854;" d="M983 311l-105 110c-5 5-11 8-18 8-7 0-13-3-18-8l-104-111c-10-10-9-27 0-37 5-5 11-8 18-8 7 0 13 3 18 8l62 66c-5-147-96-275-229-322-34-12-70-18-106-18 0 0 0 0 0 0-55 0-110 15-159 42-50 28-92 70-123 120-5 8-12 12-21 12-5 0-10-1-14-4-11-8-15-24-7-36 35-58 84-105 141-137 56-32 119-49 183-49 41 0 82 7 122 21 153 53 257 201 263 370l62-65c5-5 11-8 18-8 0 0 0 0 0 0 7 0 13 3 18 8 8 11 8 28-1 38l0 0z m-711 115c-5 5-11 8-18 8-6 0-12-3-17-7l-65-66c5 148 96 278 229 325 34 12 70 18 106 18 55 0 110-15 159-42 50-28 92-70 123-120 5-7 12-12 21-12 5 0 9 1 13 4 11 8 14 23 7 35-35 57-84 105-141 137-56 33-119 49-182 49-41 0-82-7-122-21-152-54-256-201-262-370l-60 66c-5 5-11 8-18 8-6 0-12-3-17-7-10-10-10-26-1-36l102-113c5-5 11-8 17-8h0c6 0 12 3 17 7l108 109c9 10 10 26 1 36l0 0z" horiz-adv-x="1000" />

<glyph glyph-name="18" unicode="&#xe855;" d="M501 365c8 0 14-6 14-14s-6-14-14-14c-8 0-14 6-14 14s6 14 14 14z m-2 449c-248 0-448-200-448-447s200-448 447-448 448 201 448 448-200 447-447 447z m0-742c-163 0-295 132-295 295s132 294 295 294 294-131 294-294-132-295-294-295z m171 295c0-95-77-171-171-171-95 0-172 76-172 171 0 94 77 171 172 171 94 0 171-77 171-171z" horiz-adv-x="1000" />

<glyph glyph-name="20" unicode="&#xe856;" d="M657 308c83 52 139 144 139 249 0 162-131 294-293 294s-294-132-294-294c0-105 56-197 139-249-172-63-295-229-295-423 0-20 16-36 36-36s36 16 36 36c0 209 170 378 378 378s377-169 377-378c0-20 16-36 36-36 20 0 36 16 36 36 0 195-123 360-295 423z m-376 249c0 122 100 221 222 221s221-99 221-221-99-222-221-222-222 100-222 222z" horiz-adv-x="1000" />

<glyph glyph-name="24" unicode="&#xe857;" d="M220 456c61 0 110 49 110 110s-49 110-110 110-110-50-110-110c0-27 10-51 25-70-13-40-20-82-20-124 0-132 66-253 177-324 4-2 9-4 13-4 8 0 17 4 21 12 8 11 4 27-7 34-97 62-154 167-154 282 0 31 4 62 13 92 13-5 27-8 42-8z m0 170c33 0 60-27 60-60 0-33-27-60-60-60s-60 27-60 60c0 33 27 60 60 60z m638-229c-14 0-25-11-25-25 0-143-90-269-223-315-4 55-50 99-107 99-59 0-107-48-107-108 0-59 48-108 107-108 43 0 79 25 97 61 167 45 283 196 283 371 0 14-11 25-25 25z m-355-407c-31 0-57 26-57 58s25 58 57 58 58-26 58-58-26-58-58-58z m202 645c-16-19-26-43-26-69 0-59 48-108 107-108s108 48 108 108c0 59-48 107-108 107-14 0-27-2-39-7-69 58-157 90-248 90-50 0-98-9-144-28-13-5-19-19-14-32 5-13 19-19 32-14 40 16 82 24 125 24 76 0 148-25 207-71z m139-69c0-32-26-58-58-58s-57 26-57 58 25 57 57 57 58-26 58-57z" horiz-adv-x="1000" />

<glyph glyph-name="25" unicode="&#xe858;" d="M644 455h-17c-1 0-1 0-2 0h-78c38 17 65 55 65 99 0 60-48 108-107 108s-108-48-108-108c0-44 27-82 66-99h-84c-1 0-1 0-1 0h-18c-24 0-44-19-44-44v-168c0-22 17-41 38-44v-1c0-22 17-40 39-40h5v-82c0-23 19-41 41-41h133c22 0 40 17 40 39v84h0c21 0 39 18 39 40v1c21 3 38 22 38 44v168c-1 25-21 44-45 44z m-140 157c32 0 58-26 58-58s-26-57-58-57-57 26-57 57 26 58 57 58z m134-363h-13c-14 0-25-11-25-25v-16h-14c-14 0-25-11-25-25v-98h-113v98c0 14-11 25-25 25h-20l0 16c0 14-11 25-25 25h-12v156h12c0 0 1 0 1 0h244c1 0 1 0 2 0h12v-156z m-136 531c-238 0-431-194-431-431 0-238 193-432 431-432 237 0 431 194 431 432 0 237-193 431-431 431z m0-813c-210 0-381 171-381 381s171 381 381 381 381-171 381-381-171-381-381-381z" horiz-adv-x="1000" />

<glyph glyph-name="add" unicode="&#xe859;" d="M973 299c0-12-11-22-23-22l-342 0 0-342c0-12-10-22-22-22s-23 10-23 22l0 342-341 0c-13 0-23 10-23 22 0 13 10 23 23 23l341 0 0 342c0 12 10 22 23 22s22-10 22-22l0-342 342 0c12 0 23-10 23-23z" horiz-adv-x="1000" />

<glyph glyph-name="add-circle" unicode="&#xe85a;" d="M356 324l426 0 0-86-426 0 0 86z m170 170l86 0 0-426-86 0 0 426z m43 214c-236 0-427-191-427-427s191-427 427-427 427 192 427 427-191 427-427 427z m0-768c-189 0-341 153-341 341s152 341 341 341 341-152 341-341-153-341-341-341z" horiz-adv-x="1000" />

<glyph glyph-name="addiction" unicode="&#xe85b;" d="M750 131l0 407c0 34-28 62-63 62l-624 0 0 125-63 0 0-156 0-407c0-34 28-62 63-62l625 0 0-125 62 0 0 156z m-626 595l-124 0 0 124 124-124z m502-751l124 0 0-124-124 124z m-563 563l593 0c17 0 32-15 32-31l0-344-594 0c-17 0-31 14-31 30l0 345z" horiz-adv-x="750" />

<glyph glyph-name="adminevent" unicode="&#xe85c;" d="M497-35c-15-8-39-8-54 0l-442 229h-1v-56h5l-5-2 418-217c29-15 75-15 104 0l418 217-5 2h6v56h-2l-442-229z m442 453l-442-230c-15-8-39-7-54 0l-442 230h-1v-56h5l-5-3 418-216c29-15 75-15 104 0l418 216-5 3h6v56h-2z m-916 157l395-205c29-15 76-15 105 0l395 205c29 15 29 40 0 55l-395 205c-29 15-76 15-105 0l-395-205c-29-15-29-40 0-55z m92 43l329 171c15 8 38 8 53 0l330-171c14-7 14-19 0-27l-330-171c-14-8-38-8-53 0l-329 171c-15 7-15 20 0 27z" horiz-adv-x="941" />

<glyph glyph-name="align-center" unicode="&#xe85d;" d="M321 850l500 0c20 0 36-16 36-36l0-71c0-20-16-36-36-36l-500 0c-19 0-35 16-35 36l0 71c0 20 16 36 35 36z m-285-857l1071 0c20 0 36-16 36-36l0-71c0-20-16-36-36-36l-1071 0c-20 0-36 16-36 36l0 71c0 20 16 36 36 36z m285 286l500 0c20 0 36-16 36-36l0-72c0-19-16-35-36-35l-500 0c-19 0-35 16-35 35l0 72c0 20 16 36 35 36z m-285 285l1071 0c20 0 36-16 36-35l0-72c0-20-16-36-36-36l-1071 0c-20 0-36 16-36 36l0 72c0 19 16 35 36 35z" horiz-adv-x="1143" />

<glyph glyph-name="align-justify" unicode="&#xe85e;" d="M63 850l875 0c34 0 62-16 62-36l0-71c0-20-28-36-62-36l-875 0c-35 0-63 16-63 36l0 71c0 20 28 36 63 36z m-32-857l938 0c17 0 31-16 31-36l0-71c0-20-14-36-31-36l-938 0c-17 0-31 16-31 36l0 71c0 20 14 36 31 36z m32 286l875 0c34 0 62-16 62-36l0-72c0-19-28-35-62-35l-875 0c-35 0-63 16-63 35l0 72c0 20 28 36 63 36z m-32 285l938 0c17 0 31-16 31-35l0-72c0-20-14-36-31-36l-938 0c-17 0-31 16-31 36l0 72c0 19 14 35 31 35z" horiz-adv-x="1000" />

<glyph glyph-name="align-left" unicode="&#xe85f;" d="M36 850l500 0c19 0 35-16 35-36l0-71c0-20-16-36-35-36l-500 0c-20 0-36 16-36 36l0 71c0 20 16 36 36 36z m0-857l1071 0c20 0 36-16 36-36l0-71c0-20-16-36-36-36l-1071 0c-20 0-36 16-36 36l0 71c0 20 16 36 36 36z m0 286l500 0c19 0 35-16 35-36l0-72c0-19-16-35-35-35l-500 0c-20 0-36 16-36 35l0 72c0 20 16 36 36 36z m0 285l1071 0c20 0 36-16 36-35l0-72c0-20-16-36-36-36l-1071 0c-20 0-36 16-36 36l0 72c0 19 16 35 36 35z" horiz-adv-x="1143" />

<glyph glyph-name="align-right" unicode="&#xe860;" d="M1107 850l-500 0c-20 0-36-16-36-36l0-71c0-20 16-36 36-36l500 0c20 0 36 16 36 36l0 71c0 20-16 36-36 36z m0-857l-1071 0c-20 0-36-16-36-36l0-71c0-20 16-36 36-36l1071 0c20 0 36 16 36 36l0 71c0 20-16 36-36 36z m0 286l-500 0c-20 0-36-16-36-36l0-72c0-19 16-35 36-35l500 0c20 0 36 16 36 35l0 72c0 20-16 36-36 36z m0 285l-1071 0c-20 0-36-16-36-35l0-72c0-20 16-36 36-36l1071 0c20 0 36 16 36 36l0 72c0 19-16 35-36 35z" horiz-adv-x="1143" />

<glyph glyph-name="analytics" unicode="&#xe861;" d="M1047-288h-455a46 46 0 0 0-46 46v91a46 46 0 0 0 46 45h99l84 145c-54 18-92 69-92 128a137 137 0 1 0 273 0c0-61-41-112-97-129l83-144h105a46 46 0 0 0 45-45v-91a46 46 0 0 0-45-46z m-137 455a91 91 0 1 1-182 0 91 91 0 0 1 182 0z m-93-147l-73-126h146l-73 126z m230-194a23 23 0 0 1-23 23h-410a23 23 0 0 1-22-23v-46a23 23 0 0 1 22-22h410a23 23 0 0 1 23 22v46z m-285 751h-523a11 11 0 0 0-11 11v23a11 11 0 0 0 11 11h523a11 11 0 0 0 12-11v-23a11 11 0 0 0-12-11z m12-171a11 11 0 0 0-12-11h-523a11 11 0 0 0-11 11v23a11 11 0 0 0 11 11h523a11 11 0 0 0 12-11v-23z m159-79a23 23 0 0 0-23 22v433a23 23 0 0 1-22 23h-774a23 23 0 0 1-23-23v-956a23 23 0 0 1 23-23h364a23 23 0 0 0 0-45h-387a46 46 0 0 0-45 45v1002a46 46 0 0 0 45 45h819a46 46 0 0 0 46-45v-456a23 23 0 0 0-23-22z" horiz-adv-x="1000" />

<glyph glyph-name="android" unicode="&#xe862;" d="M925 149c0-39 32-71 71-71 39 0 71 32 71 71l0 274c0 39-32 70-71 70-39 0-71-31-71-70l0-274 0 0 0 0z m-254 506c0 19 16 34 35 34 20 0 36-15 36-34 0-19-16-34-36-34-19 0-35 15-35 34l0 0 0 0z m-269 0c0 19 15 34 34 34 19 0 35-15 35-34 0-19-16-34-35-34-19 0-34 15-34 34l0 0 0 0z m-146-665c0-31 24-55 55-55l63 0 0-152c0-38 31-71 71-71 38 0 71 33 71 71l0 152 110 0 0-152c0-38 30-71 70-71 40 0 71 33 71 71l0 152 63 0c31 0 55 24 55 55l0 502-629 0 0-502 0 0 0 0z m628 546c-9 94-73 173-166 215l58 83c4 5 3 12-1 14-5 3-10 1-15-3l-60-86c-41 15-84 24-131 24-47 0-91-9-131-24l-60 86c-4 4-9 7-14 3-5-3-6-9-3-14l59-83c-92-43-157-120-166-215l630 0 0 0 0 0z m-813-387c0-39 31-71 71-71 39 0 71 32 71 71l0 274c0 39-32 70-71 70-40 0-71-31-71-70l0-274 0 0 0 0z" horiz-adv-x="1000" />

<glyph glyph-name="angle-double-down" unicode="&#xe863;" d="M569 138l-459 458 48 48 411-412 411 412 48-48-459-458z m0-230l-411 412-48-48 459-459 459 459-48 48-411-412z" horiz-adv-x="1000" />

<glyph glyph-name="angle-down" unicode="&#xe864;" d="M1095 510l-526-525-526 525 48 48 478-479 478 479 48-48z" horiz-adv-x="1000" />

<glyph glyph-name="angle-down-mini" unicode="&#xe865;" d="M1091 593l73-73-414-413-413 413 73 73 340-340 341 340z" horiz-adv-x="1500" />
</font>
</defs>
</svg>
